# xmcd CD database file
#
# Track frame offsets:
#	150
#	19950
#	36475
#	58313
#	79238
#	97925
#	120955
#	141103
#	163088
#	185215
#	204440
#	228520
#
# Disc length: 3318 seconds
#
# Revision: 0
# Processed by: cddbd v1.5.1PL0 Copyright (c) Steve Scherf et al.
# Submitted via: CDex 1.51
#
DISCID=a80cf40c
DTITLE=やしきたかじん - Best☆BEST10
DYEAR=2004
DGENRE=JPop
TTITLE0=ラヴ・イズ・オーヴァー
TTITLE1=愛したあとからメランコリー
TTITLE2=My Friend
TTITLE3=ゆめいらんかね Yume Irankane (new remix version)
TTITLE4=あんた
TTITLE5=雨の日はバラードで
TTITLE6=やっぱ好きやねん
TTITLE7=ICHIZU
TTITLE8=なめとんか
TTITLE9=未練 〜STILL〜
TTITLE10=順子
TTITLE11=時は流れて
EXTD=YEAR: 2004
EXTT0=
EXTT1=
EXTT2=
EXTT3=
EXTT4=
EXTT5=
EXTT6=
EXTT7=
EXTT8=
EXTT9=
EXTT10=
EXTT11=
PLAYORDER=
